<svg width="64" height="64" viewBox="0 0 64 64" fill="none" xmlns="http://www.w3.org/2000/svg">
<path d="M32.0704 63.6133H31.9296C14.3238 63.6133 0 49.4626 0 32.0695V31.9304C0 14.5374 14.3238 0.386719 31.9296 0.386719H32.0704C49.6762 0.386719 64 14.5374 64 31.9304V32.0695C64 49.4626 49.6762 63.6133 32.0704 63.6133ZM31.9296 2.52687C15.5175 2.52687 2.16633 15.7166 2.16633 31.9304V32.0695C2.16633 48.2833 15.5175 61.4731 31.9296 61.4731H32.0704C48.4825 61.4731 61.8337 48.2833 61.8337 32.0695V31.9304C61.8337 15.7166 48.4825 2.52687 32.0704 2.52687H31.9296Z" fill="#381A0F"/>
<path d="M41.5677 13.8845H22.4346C17.1487 13.8845 12.8486 18.1327 12.8486 23.3547V40.6472C12.8486 45.8691 17.1487 50.1173 22.4346 50.1173H41.5677C46.8535 50.1173 51.1537 45.8691 51.1537 40.6472V23.3547C51.1537 18.1327 46.8535 13.8845 41.5677 13.8845ZM16.2302 23.3547C16.2302 19.9754 19.014 17.2253 22.4346 17.2253H41.5677C44.9883 17.2253 47.772 19.9754 47.772 23.3547V40.6472C47.772 44.0265 44.9883 46.7765 41.5677 46.7765H22.4346C19.014 46.7765 16.2302 44.0265 16.2302 40.6472V23.3547Z" fill="#381A0F"/>
<path d="M32.0011 40.8077C36.9165 40.8077 40.9177 36.857 40.9177 31.9988C40.9177 27.1407 36.9187 23.1899 32.0011 23.1899C27.0835 23.1899 23.0845 27.1407 23.0845 31.9988C23.0845 36.857 27.0835 40.8077 32.0011 40.8077ZM32.0011 26.5329C35.0535 26.5329 37.5361 28.9855 37.5361 32.001C37.5361 35.0165 35.0535 37.469 32.0011 37.469C28.9487 37.469 26.4661 35.0165 26.4661 32.001C26.4661 28.9855 28.9487 26.5329 32.0011 26.5329Z" fill="#381A0F"/>
<path d="M41.7432 24.6131C43.0668 24.6131 44.1456 23.5494 44.1456 22.2397C44.1456 20.9299 43.069 19.8662 41.7432 19.8662C40.4174 19.8662 39.3407 20.9299 39.3407 22.2397C39.3407 23.5494 40.4174 24.6131 41.7432 24.6131Z" fill="#381A0F"/>
</svg>
