<svg width="64" height="64" viewBox="0 0 64 64" fill="none" xmlns="http://www.w3.org/2000/svg">
<path d="M32.0704 64H31.9296C14.3238 64 0 49.6762 0 32.0704V31.9296C0 14.3238 14.3238 0 31.9296 0H32.0704C49.6762 0 64 14.3238 64 31.9296V32.0704C64 49.6762 49.6762 64 32.0704 64ZM31.9296 2.16633C15.5174 2.16633 2.16633 15.5174 2.16633 31.9296V32.0704C2.16633 48.4825 15.5174 61.8337 31.9296 61.8337H32.0704C48.4826 61.8337 61.8337 48.4825 61.8337 32.0704V31.9296C61.8337 15.5174 48.4826 2.16633 32.0704 2.16633H31.9296Z" fill="#381A0F"/>
<path d="M46.9466 23.4505V29.2888C45.9262 29.1892 44.6004 28.9574 43.1338 28.4201C41.2188 27.7182 39.7933 26.7585 38.8596 26.0154V37.8155L38.8358 37.7787C38.851 38.0126 38.8596 38.2509 38.8596 38.4914C38.8596 44.3513 34.0915 49.1216 28.2294 49.1216C22.3673 49.1216 17.5992 44.3513 17.5992 38.4914C17.5992 32.6315 22.3673 27.859 28.2294 27.859C28.8035 27.859 29.3668 27.9045 29.917 27.9933V33.7471C29.3884 33.5586 28.8209 33.4568 28.2294 33.4568C25.4544 33.4568 23.1949 35.7141 23.1949 38.4914C23.1949 41.2686 25.4544 43.5259 28.2294 43.5259C31.0045 43.5259 33.264 41.2665 33.264 38.4914C33.264 38.3874 33.2618 38.2834 33.2553 38.1794V15.2488H39.0893C39.1109 15.7427 39.1304 16.241 39.1521 16.7349C39.1911 17.7076 39.5377 18.6412 40.1421 19.406C40.8505 20.305 41.8968 21.3492 43.3656 22.1832C44.7412 22.9609 46.0324 23.2967 46.9466 23.4548V23.4505Z" fill="#381A0F"/>
</svg>
