<svg width="593" height="21" viewBox="0 0 593 21" fill="none" xmlns="http://www.w3.org/2000/svg">
<path d="M592.7 0.00096019C587.14 2.66966 575.32 3.43973 564.864 3.89065C550.133 4.52467 534.873 4.5991 519.996 4.64616C484.404 4.75996 449.233 3.43117 414.002 2.28035C380.682 1.19028 347.621 1.21082 315.323 3.93685C310.723 4.3253 305.999 4.84125 301.47 5.4804C288.205 2.30774 268.929 1.17488 250.736 1.04312C216.842 0.797551 182.616 3.03331 148.935 3.85985C122.609 4.50499 96.4201 5.38457 69.931 5.04147C47.221 4.74798 20.5374 3.35845 0.984105 0.112196C-0.0021752 -0.0503733 -0.468182 1.26216 0.648964 1.46837C23.3015 5.65068 55.9475 6.58673 82.6122 6.64406C116.577 6.7185 151.792 5.49923 185.38 4.21151C215.766 3.047 249.035 0.987503 279.261 3.39096C286.127 3.93685 292.533 4.82156 298.1 5.98864C285.626 7.97541 275.351 10.965 274.48 14.9547C273.561 19.1345 292.9 22.3713 306.318 20.2391C317.535 18.4577 318.199 13.1023 313.915 10.2351C311.617 8.69584 308.428 7.40727 304.64 6.31463C311.419 5.47697 318.677 4.87889 325.706 4.39546C359.214 2.08869 392.661 2.76037 426.568 3.9283C461.937 5.14842 497.27 6.10672 532.98 5.78586C551.129 5.62329 584.596 5.98351 592.955 0.525465C593.128 0.408244 592.751 -0.0229974 592.7 0.00096019ZM311.087 9.96047C318.77 13.5276 314.253 19.7497 296.121 19.6983C289.807 19.6795 283.529 18.5818 279.233 17.425C270.209 14.9933 280.251 11.4441 286.226 9.73286C290.567 8.49049 295.782 7.52021 301.422 6.73731C305.201 7.66995 308.476 8.74891 311.087 9.96047Z" fill="#9A6F46"/>
</svg>
